<mxfile host="app.diagrams.net" agent="Mozilla/5.0 (Macintosh; Intel Mac OS X 10_15_7) AppleWebKit/537.36 (KHTML, like Gecko) Chrome/128.0.0.0 Safari/537.36" version="24.7.8" pages="3">
  <diagram name="Page-1" id="87KUk360Fw47hZn1aTyz">
    <mxGraphModel dx="794" dy="402" grid="1" gridSize="10" guides="1" tooltips="1" connect="1" arrows="1" fold="1" page="1" pageScale="1" pageWidth="827" pageHeight="1169" math="0" shadow="0">
      <root>
        <mxCell id="0" />
        <mxCell id="1" parent="0" />
        <mxCell id="mPodc8RsYOiW5nBpzALW-1" value="Architecture vs Framework :" style="rounded=1;whiteSpace=wrap;html=1;fontSize=30;" vertex="1" parent="1">
          <mxGeometry x="60" y="90" width="440" height="80" as="geometry" />
        </mxCell>
        <mxCell id="mPodc8RsYOiW5nBpzALW-2" value="" style="shape=image;verticalLabelPosition=bottom;labelBackgroundColor=default;verticalAlign=top;aspect=fixed;imageAspect=0;image=https://miro.medium.com/v2/resize:fit:1400/format:webp/0*k9vCsZDxVn27YWV0.jpg;" vertex="1" parent="1">
          <mxGeometry x="170" y="220" width="800" height="414" as="geometry" />
        </mxCell>
        <mxCell id="jCIPyLhT8cWhU5tP8169-1" value="&lt;h3 style=&quot;caret-color: rgb(0, 0, 0); color: rgb(0, 0, 0); font-style: normal; font-variant-caps: normal; letter-spacing: normal; text-align: start; text-indent: 0px; text-transform: none; white-space: normal; word-spacing: 0px; -webkit-text-stroke-width: 0px; text-decoration: none; font-size: 35px;&quot;&gt;Benefits:&lt;/h3&gt;&lt;ul style=&quot;caret-color: rgb(0, 0, 0); color: rgb(0, 0, 0); font-style: normal; font-variant-caps: normal; font-weight: 400; letter-spacing: normal; text-align: start; text-indent: 0px; text-transform: none; white-space: normal; word-spacing: 0px; -webkit-text-stroke-width: 0px; text-decoration: none; font-size: 35px;&quot;&gt;&lt;li style=&quot;font-size: 35px;&quot;&gt;&lt;strong style=&quot;font-size: 35px;&quot;&gt;Loose Coupling&lt;/strong&gt;: Producers and consumers are decoupled, meaning changes in one part of the system have minimal impact on others.&lt;/li&gt;&lt;li style=&quot;font-size: 35px;&quot;&gt;&lt;strong style=&quot;font-size: 35px;&quot;&gt;Scalability&lt;/strong&gt;: Systems can be scaled independently since components are loosely coupled.&lt;/li&gt;&lt;li style=&quot;font-size: 35px;&quot;&gt;&lt;strong style=&quot;font-size: 35px;&quot;&gt;Real-Time Processing&lt;/strong&gt;: EDA allows for real-time reactions to events, making it suitable for applications that require immediate responsiveness.&lt;/li&gt;&lt;li style=&quot;font-size: 35px;&quot;&gt;&lt;strong style=&quot;font-size: 35px;&quot;&gt;Flexibility&lt;/strong&gt;: New consumers can be added without altering the existing event producers, enhancing the system&#39;s flexibility.&lt;/li&gt;&lt;li style=&quot;font-size: 35px;&quot;&gt;&lt;h3&gt;3.&lt;span class=&quot;Apple-converted-space&quot;&gt;&amp;nbsp;&lt;/span&gt;&lt;strong&gt;Reliable Message Delivery&lt;/strong&gt;&lt;/h3&gt;&lt;ul&gt;&lt;li&gt;&lt;strong&gt;Persistence&lt;/strong&gt;: RabbitMQ supports persistent messages, ensuring that messages are not lost even if the broker crashes or restarts.&lt;/li&gt;&lt;li&gt;&lt;strong&gt;Acknowledgments&lt;/strong&gt;: Consumers can acknowledge the receipt and processing of a message, ensuring that the message is not lost in case of failure.&lt;/li&gt;&lt;/ul&gt;&lt;/li&gt;&lt;/ul&gt;&lt;h3 style=&quot;caret-color: rgb(0, 0, 0); color: rgb(0, 0, 0); font-style: normal; font-variant-caps: normal; letter-spacing: normal; text-align: start; text-indent: 0px; text-transform: none; white-space: normal; word-spacing: 0px; -webkit-text-stroke-width: 0px; text-decoration: none; font-size: 35px;&quot;&gt;Use Cases:&lt;/h3&gt;&lt;ul style=&quot;caret-color: rgb(0, 0, 0); color: rgb(0, 0, 0); font-style: normal; font-variant-caps: normal; font-weight: 400; letter-spacing: normal; text-align: start; text-indent: 0px; text-transform: none; white-space: normal; word-spacing: 0px; -webkit-text-stroke-width: 0px; text-decoration: none; font-size: 35px;&quot;&gt;&lt;li style=&quot;font-size: 35px;&quot;&gt;&lt;strong style=&quot;font-size: 35px;&quot;&gt;Microservices Architecture&lt;/strong&gt;: EDA is commonly used in microservices to ensure services are loosely coupled and can operate independently.&lt;/li&gt;&lt;li style=&quot;font-size: 35px;&quot;&gt;&lt;strong style=&quot;font-size: 35px;&quot;&gt;IoT Systems&lt;/strong&gt;: IoT devices often generate a continuous stream of events, making EDA ideal for processing this data in real time.&lt;/li&gt;&lt;li style=&quot;font-size: 35px;&quot;&gt;&lt;strong style=&quot;font-size: 35px;&quot;&gt;Business Process Automation&lt;/strong&gt;: Events can trigger automated workflows in response to specific conditions or actions within a business process.&lt;/li&gt;&lt;/ul&gt;" style="rounded=1;whiteSpace=wrap;html=1;fontSize=35;" vertex="1" parent="1">
          <mxGeometry x="190" y="650" width="720" height="1300" as="geometry" />
        </mxCell>
      </root>
    </mxGraphModel>
  </diagram>
  <diagram id="UGgZlUjdjmYno7_aGJVj" name="Rabbit MQ">
    <mxGraphModel dx="794" dy="402" grid="1" gridSize="10" guides="1" tooltips="1" connect="1" arrows="1" fold="1" page="1" pageScale="1" pageWidth="827" pageHeight="1169" math="0" shadow="0">
      <root>
        <mxCell id="0" />
        <mxCell id="1" parent="0" />
      </root>
    </mxGraphModel>
  </diagram>
  <diagram id="iJlYDHHpPRvu1NtHTR5m" name="rbm Arch">
    <mxGraphModel dx="794" dy="402" grid="1" gridSize="10" guides="1" tooltips="1" connect="1" arrows="1" fold="1" page="1" pageScale="1" pageWidth="827" pageHeight="1169" math="0" shadow="0">
      <root>
        <mxCell id="0" />
        <mxCell id="1" parent="0" />
        <mxCell id="9YKlfUuHpRu2bPQ8yLHS-4" value="" style="shape=image;verticalLabelPosition=bottom;labelBackgroundColor=default;verticalAlign=top;aspect=fixed;imageAspect=0;image=data:image/png,iVBORw0KGgoAAAANSUhEUgAAAd4AAAF9CAMAAACdyPmxAAAABGdBTUEAALGPC/xhBQAAAAFzUkdCAK7OHOkAAAMAUExURf///8/n//f7/zY4POfn5wAAAOnp6anF6/Pz8/Hx8fX19dPp//v9/9Hn/9vt/+/3/9/v//P5/9nr/9fr//n9/+v1//3//+/v7/n5+fv7+zIyMv39/evr6+3t7ff39/X7/+Px/+fz/+Hv//H5/+Xz/+33/9Xp/7VkBP39/+nz/9Xr/+n1/93t/93v/+Xx//X5/83l/83n/+Hx/9Hp//H3/2ZmZv+ZMu31/wwMDDKZ/zw8PKSkpGlpafn7/7a2thMUFYeIicjIyB8gIURERAkLCxgaHZ6en9rt/5aWl62trc7Oznd3eGxsbdbW1yQnKdra2j1BRY6OjltbWyIjJBcXGIODgwUGB2pwdnBwcOPj4jg4OEhISEdRXw8QEbKys2FhYUpNTysuMcXFxlBQUcHBwTI1OBsdHykpKXx9fUVJTlRUVEVHSaioqbu7uz8/QE5OTnh6febl5d/g4JOTk7m5uSUrM3R0dCUpL5mZmoqRl7nE0GRlZlpcX7rByN3d3a+vsNHR0UBGTNXn+Jaco1RZX9PT07+/v05TWsvLy5CUmImTnouLi8nS2+ny+9be58PJ0KSstKurqy4yNV5kalJda32Jlr52ILy9vgMDA5CerMPExZyquLnI2bC9y8na65egqdvm8ZyjqnN4fISKkK+3wH2GjpGao2tyeqqxuGFqczE5QtXi8Jeksd/r+MmSTmx3hHV9h+TGpDCV+FhYWJ2vxDg8QbzO4ZChtKeyv+Lt+HyCiBlMgMne9NCgZE1VYNSpc2d5kp2nsJubm3WCjq/B1KC53IWOlvft4svX47C7x9y5jn2SrmR0i15rfeTVwevg04yiw6GhoVphac7j+T9KWFRidFZWVhMwTW5ydrhrDuXMsMLM2cDV6219mJmx08B9LNnq/bZoCPr07anD6iZywSk/WSIgIMSGOOjq7S6L6Ki4yuvr7lBfduHn7SBkp9O0jPPn2Tc6POHp8dmxgfX3+Pv5945PAgoVIR5bmff6/VMuAvn7/evv8SkXAOPv/d3p9SQsEUcAACAASURBVHgB7b0JYBRVtjde2LkhCbJIiEkqEAPjBMNgxKf86UkinZCFkJ2EhCySAGFJwhKSYIgCIShLJI4SEGwWNxxQBBEeIo4DrriPjiA6iihqxnGGp08Z37z55n3vc/7n3Ftbd1d3V1VXdxKd00nXXc49597zq3PvrVu3qzjOnzR3T73FX1S/Z65T1f2pDVvhqtGpAj+xaOq64+cn+IvOH1+X6mBPv2rDVrhodFD/k4ukPjlhwgABXT8cB0x4UokvavOrPhTuoPEnB6hDg+euG+BvWif3zwHQhq1RaHRo7E8vsufgYH/TwT2SWQOgDVuj0Cip/mkG6s8PHjRo0GD68c9x0Pl6ybSozd/6QL5Co6T6pxmwjAN0/UvxFsm0AdCGbVFolFTrDuTXVVqJP8laWZevu1Y6C1ji/U8KeP2vjGqQNeo0h8xebm3dEClHVULRYdEqqdqTIje0Wsu1sxvi/Be8qmZrqlwZyYUy353RoO5k2WSNalllorqIZJLM4T8XubKyScluetgS7n+SfSkQ2rA9skaDBqsshYKRhNTU1DSUEFKoJkYLvOoiTgO0+A9UWqkm2rQ0y/Bwv39kYwdCG7ZH1mjMUOUrsVwkWYCHmDySh0dn0gavmggFvNxKv/bPliFTp071879sbIvfdbG2yBqdMdEUz7fSUVeAl5tM0rk1jWlQdE1jDsctSbeWYH+dTU6XVi74QPLssGW8lU+N4rj7GtOyF06jmtRFKOGNtKp3/Zoq6pXJMsT/JBs7ENqwPbJGrwZQY6hrpakiNnmkhptOB9ouspxrJ9ZG6K8rAF5CIDAjjImI5cnCDxaQpTHQ70LyYg8ilPByrXVqVTApzTLePd1+u9s8D1muZWRje9I2frwHoR6yXPWNHy9rNGSmyg0CNjNycnIm5xJSrYA3hWzgYrJIC8KbxgWnk06mo4XUxHBRVSQL4CV1FSwxkqiJcIB3gz9HX2bwR9kcccW2J66VrXWAbBQjmZnjx1uniDE4WgsUEdXggTPPiOmysUV4Tdf3wKat6w7vHuaq0RC8rG/GqRUjGB5l7/2ApIRyUZ3ovbkgvYtNkThuIYGOm9tAPgB400W16iIc4I20isx+OFqGIc0kllWr1h0j5AyN0q9rAV4xZsscNqyEsbIka4GY5e64l+wVsxTwCklm6/s4k+Jwh6tGQyYjrFQksXYBJXdAVIZ3A6hKb2mmYy9kJJM2yh1DCF4GjyILAV6WBFF1EQ7wcoI2KsXsLxHefdeCaT4m5IExoomGOcErpWPAC7wfH64nnuE1V18RefWJ2zdB7eNYLeUTypC9JHjptJeKYPDmwtjL5ecuBIS7wXvxuleEN5QUIGMQmQPw0msejIrDN4ZlEQGEdwzSTLJvTBwct5A3xtRuxZTZM8ccsG/cZLEeexhitswxP5zZP2bMgZklVsuz48eMsS58Zp3Nshc5Xz9TsGLlbgismnnbui2YMmbMg+hMNBdjsrEtGAUyV1/cE/aCMWN+iFtBHmPiFRrRrrpJFd5uEFML8OaD41bUgZM6wstZyUjgmEwa3MMrigggvHFIYG48vG4nd/0bKUiEINkSd4DYScExQl6Ni7NlxsVZp8SNKSIr1hKyPzEOV2NheghZt2UQ2xZi/TUwWa1kCoqhtInsFYMKeIUkk/W9bjn8Q1zcmIXkGUG+rFE3tFhABd5uUhrDNVsBXusM6IRDyAxneKvAoTkuj2S7g1cWEUB4E+PgM5Psue221bdeInN+SCQFmEK2XH2AkGcT494gGQ8lAryJAO9d5FLi1QcKrE8AvGcOxD1M6hPj5pNbf0h8hsxJjLORLS/+gGXxczXCK4RlY1uEFJP1xVFNLxLrAReNZsFbSEhpKpzQy7kUUrykuoGkOMObRkhLdS5eJ7npnGURgYQ3EWgmdqZAmbeNBnhHQwrZkvgQKYmD0BzyBsCbCPAm3mYn949OfH31E4lW8lBi4g8kM/E2UnJ1YuLVx8jHo23AKNOd9r0oB0kJL0vxg74n9hByB5Ou1OgLvKFs1YqJmG4npKGULOFG1qClZkdybQ5jL8dNwy6Nh66bLiezUuoipDVnyuTXqdVopJmkdu/eva9ufgjCAC9+b7n6IbIOQx+SB0fbMkePtk4ZfXURIVO2bv4BIjbMyrSOfpjY6oEA2tE2ayImCoTwCqSAV0gxX9/mKSTzMVHhaFmjL/A6lo3tCBUSmqqXS0tVSp6wnOUVMcoE57AsQpkTAHjtd4xO+BWzDoX3IbJl9ENkYwIkLZPhHf3D5tlwhm7552grPQcA3luJrYjSanoOSAYevY/sxdJIsrEtLGH0TJP1/bCfkMP/FIQ7aFTaUXPYnwZ3rYQ/tVkSkD4kd9AjfpGShISI28iWhIfIHIwXkdUJtsyEBOuUSQfu+WvED4+VkBcTrAsxK9MasZnMTohISLj7499QJkxldCd5RAwq4BWSzNa3h/B3YTVEkjW6WlNDij8N7qren9oQ3ggBXrRPRMIU8s+IhDz7loiHCAAL39YnImyZEQBvwp32TREREcvgXKDwRmRaE2Cy/UREwm9mkL8CvCCAyYCjAC/GZWNbhHwGr2n6fmMnrwuK2UHW6GpNDSn+NLiren9qs0RMAsTA3PSI4VVk6a2roAeO+CshtsO3ziF7JyG8EdYpP7+LWLPfuNUKtrQuRP5M688nfUiSHn54C9kTQZmgPMqA/33kETEsG9si5JusbzWx1s6unT179j2CfFmjqzU1pPjT4K7q/anNMgnpQ/uDQ2kAvu6GNZkpt2ZWTvor+eASjLR7IC0zc9Ik6Jx/fgdMH4n14aGTrAuRPdM6adJv6Cz42V8hkyQD8gBeZEGSjc20ma7vVqgVpceYQoVGV2tqSPGnwV3V+1ObZagr3X2XlHb36r9KYQx8s3qzU8qNQ7/59a+/meTA5RRRwOuUw6Jm6xs6VNboak0NKf40uKt6f2pTg1cVAzHxRjEgH2/8mRxWC8nG1q1t6FAD+v4Fr3QOWW70Pyng9b8yqkHWKDVUT8Cf/uRaD39qs/wM7OHnf9nYcDL5WReTL2t0taaGFH8a3FW9P7VZrrjuiiv8/C8b2+J3XawtskZXa2pI8afBXdX7U5vlOsDWzx/Z2IHQhq2RNbpaU0OKPw3uqt6f2ixX+Z9kYwdCG7ZH1uhqTQ0pKgaf3DgvdT6fGrs4fUFtB4rIqsqcnY37M8SNk3IgaHrVjIbpwZAXVle5tCttZZqSH8KOpKLNkcGHmOUy/5Ns7EBow/bIGg2ZRsXg2cRqXwA3hIh1BrHCvQW4bZRkIw1R8sZJaQdldCWssiyAXRtcGLDzcEEOmzckftcKqWhzZTKYUv/nm/xNf66X6hYAbdgahUZJtZ6AisEB3jRuHiG5YTFVZC63nFS2c7FVsIVS2jgpBZaTmiguuoQ0w/abD6K4HIRX5neth4o2VyaDKcuqL/M3vNXy73uXrRnhb20oX6HRkFlUDJ5N6uD3CoTE4ha6LNiVg1sz5pFiTto4KQXak+Geb1g6yYfNk9hD5wK8Mr9rhVS0uTIZTNm56nI/04hVc6W6+V8bbYxCo6RaT0DF4PCTBJBgnQFfL5GXuAKS3tjYmA47XqWNk1KACyptmANdcn4M7NgB6gZ4ZX5McSQVbY4MvsRS6/wMb12qonp+14aNcdCoUK45qGJwtm/OilsnX4J9rlaSTgl+fCRunJQC+fDLhdo68N4w2G8HlGxPVvK71EJFmwuP8YTUVdUjr/QXjaxelepQNb9qw1a4aHRQry2iYnAneOeTDhAVnV8hb5yUdlDW4K47rhg6ZysZBVzLwHtlftcaqGhzZTKeMneZH59rtUzumVkN/amNPtfKRaN+y6gY3AnePJIKYttIqbxxUtpBWYC/F22yArx082TTDIBX5netjYo2V6Yfa0pdSuBbpmJwJ3ibYOPk5FJibZI3Tko7KGtI1bQuuIjqioTNk3V1sL0ymZP5XVujos2VqTdSSpv8rjXatt7vOlwUqBi8jW6LnIFjbxZMrbg0QI0shK5J2jgpBSoaIatmiRV+W7a8AC6PS+HySeZ3USbuqnbN6O2UFLhY8DO1fOBnBWriVeB1YYteP7mDbYuUNk5KgaC58KPQkPzoqDAuNAp+ZIb7KmV+Z1FatDmXCUg8f5bw21b/aVu4wX+y3Uo2y+DFsC2aG1VAPO6O7bveyxV3uTWRORnJ6ebI0SfFLHiXE1JVM0P+vaB6LczSpi7dl9Q0HIv8SUm4OBRwMs3gG8oLbA3emmCaNvPt1Cj9ktV82SBx+Ry/iPUmNLAGD6w2b213yPez/Wv9e/Y4NEURCazBA6tN0UwNwaXsESEaOA2w5GQaKGRCkcAaPLDa9JmnO0kfvy7umlJd7KYxCwavWDLP80/CzFHYl+Hl+MnmNFJFSnMZLtn2AlGDJ+PvOe1JHSboH1URDXebStxI6tPwvjTbTa19T84t912GIQlo8BRC8tqWwV4LfN6Nj5QC689cgbt+rk/Dy/3J+aaBj7aQiodZVX9FK+X7LwAGryYl7aAgppQ9EcU3XRRetyL6NrzTi91W3LeMLn8J9lotMHgBmUbZwpJKYGF9buOMGY0dkFBc1/HBgsouWIaKzC2wJnVBp9sA93zhoSqtkFmeVrOgOC14YgkPtwTDiluqG2akw3ozrGwkdbGHR6oI6sOrVtiwqFnQ8/iD/pTmD6laZBJ4PJVVsZLYTUjjUoIrjPB0mBlJ8BANLiadzKkiBIYPds+ezIdMGKytxFpC4EZCF33oWUklgV0etVYyB+4cwtirIkh6UIuWivUGj59u2WVV9UZjqE4C+994WXvIDLx5v4QsiAIEi8Ng/00jbJCEoTRyoTXWAd6U0LBGMmM9N5dUIby5+JQ6awiM4+ABAK+aoD4Pb7C9QjaFeaH50K31EhGKoKR8DcAJtJSsB3jhWbEx8EiV9fhASa45xxHeUHw4WSlwwKYsgDcWSn0AfCK8aoL6PLxcOZylplN1pekiNQu0RjZjZyvSdDIdg61wy5dutuJKrFw09MwlKdUw9io6Z7bRLgt4rVaAl3YAqfBsWBFeNUGcX58pKTbBl2Mh9D+mUxVaqZeockM0gW6XUjqZm8umWXlwW95KN8cBvFwUPNuKkPkhDN5IOvZi5kuwN0OAl/p8C2yZFeFVFaTribCvnXvz5FcXPvpobCDpf/7HdG3/bdUk8vOPLnx18vtzrzEozPqG5zlX4pYMoHboYtsITIs5jicdMrwj14dxUUsKwKHplVOOGrwFWKocSonwqgnS/jznL46c3P7RoZPfnnvn9xVNQQH8TJ4R1GQyNdRpElhR+M65b08e2r795JEv0JjmEDyNfSf+KgEmT+kwOU4jBdAJN5EZsTK8uNmZ4+rAVUsI9F3lavDiikikFbJTYNTGqZWaIK1PYz9y6PND377zTVPTNxXfBBbdoKCqVJNPprnWdo0Sm76BT8U730Lrj5gDLkiBdynkEfJBankJWQjgzSaN05IXwtMiZXjhF0VZO7NnkXb49VB6NvyCCC+MnDpnsmD66TlwicSVkoYl9MJIRZCmdym89v1Hh96saBJM0hQUSN8FXd0FGsHQWq+JeVo5KR92HhXfHtr+vFm9dGVpdDZexpLyMEB7FG6OI9NjFPDCkwWBrN3g1fComZKWBTATpPBm0bF3Bk6t5sMVMqkBx19fQI5SeF0FaXkTymvPjz35zjcV2FL2p8s2JiDTlNSiqS/VypRf1qmVlfIJGL9z8nOTAMb3GEXlL18fJXQIFcs7EWclRaZVp8GFEFCF6rpOJFxOVWyoYEUqxNKOgjS9x+j7sSd/D51yEPNZOLDWYgBCjPxzZDpBSxZPNbEzhekX62PkmFuMkvTKgV66/eTY75lBff32/hYyLxoQXo+k7S1k5y4cWo+nMMMUDiwkHmSHFrNMPArKQPuc02IdzDjOWI5SWBM0HIXzgHK+c+jCOY9W1ZrZJ94hGPP89iPBgof25qFlqYnau6qMC/vmmyPbn9cKoT/5wqrqfBb/+68OSRMqMAk6Ln6zP+bGctw535w41dLU9Kc1qF3sM3w7Llyst7zQbqq/qeLkhd/7bNm+IODc59/+2euJDnctgGzpk1U4SbpKoqGk0kZDxdQKvVSplqo9ranp28/N6aB7F+M3tx/R0OhK0gAvOuThQfGuzMS0PrXCtsFVvLGUpGxj5RSlzn30Zu9CY4L27y+8842iSe6ClSQNs3LJSlcO8+ANai12FW8oZVqJoWLKQk3fvHPBpBm0CTgZE/H9V4UwRHknAd5ucjQoqDhlwwd8UFD1Iput6j4oivA2lS9KDQrKKS4oqJkHSQKLd7lOHHCt6pRiMNpYarCgQ7HCC/3bf9+88I5De9xGKgnaHX6WmBwURF9GE/QSIYtgRF5M4W2qIUvbg+D3ijZ4TM80kcWtNPcZKSnu83TkbJhVoYPbLWvT7/s1vue2v/ONtiuiSjI/fSkMvbVgNhuZc7qi3UbAcxeTGRXgvQzdJp50VUDSQoHFrdU8ZKSVFXrI1ZxVU66tWd4ENr2zvf/Or34/9pxWK1QSm80GC6gz0HtJdVDQaYLXlcGVZAPAC77bHBS0hJSguCQyl7F4s51qfnGuarK+xPVkvb4Cbrm/OfJ5v70++upbzV0YG3sLUwkYzmaF0bqU0NEthWQF4SUTDMlBbcS2CAjRpyxubeYpY4nNU67GvPIajYwa2L79ytisptdLnTwJ7qehgcjCxt6goHR7cpBtBiTkAa5AK8lpgDfdRrqDglKJbSml5YwF8/WTCZOiJvOur4KC/nyoT6xf6T5bzl0QfBch9vbP4A0OWkqmAXbA3UVgEhQcNAc754UVWWRKc1CyHfvroJx5FQivN4nu8tfAJY27PI3pdHVEI69XXUFN/XL4vVJYztBmBoQXOKfBc1yYa04mJdBFdxAbTq2CgxaRvKAcQpqDgptnkPYgW6aGU8aN5qUtxssysEqmeQXNjW6XcnCqNR25oNt1er/A94dwOQObqYUqydKqqiq46QwjLvXeoHSyKKulgMDVLl73dsIGbeiwK19q40k5smiW7KL9NFxT+0TZSVpb5V0NlXSo/61uvPb5O8ECBHj09oErXKAZi2DiHDRjBnwF58MuTop2EEkHI9SROUHN8JMp2HddERScOYPaxZtUtfygIP60Wrr2tMqXEDbt/J44qaT8sWZt4AiYVz9/8q+IADZNA0lMSlPkLF4Ol0Msi8kKyp+2Jp8G4UujaGftwUE+3hdcvNCoaueqQJy192R/m1299nk71FwCC0PCH00TI5Aq84j8YqOFo1SOxmV+NI6zHG3xkjXa+CiXS32ruhgoUr0wIETE9miPo6zg9s/7mfs+fxJaiHiIxEJymmMc2kgZWb4YxlQxzLBGJjGF5YkxOV3kkXNYnhxPhfuCckwOOfOpxpfMQAUCYVmd5V34ISG4n7nvldvpyAsVd/QAbIryDGdxZaq7MMpRL8ly1HKVZeR8CM1YIsmS0zXKKc4VymrklzSp87PUd7YbGzXnnm5bPnEibGMt9Nt3807Xqh051ATNYqe48gwXE2lW97KNRZfwAakBpwUzDKvcQubrLFu0cRmsySBh6519nXp/cNChI1e6WtF7yry5I70z+cZRmJzlssny0Lfgtp4pu37/8d0nJvQCXX/9+YzdRvW+vVVfyesnnNh9fH99tmdj/PnbQ/pBCNJfxFCJHGd4v/gcnNcjzV31qGEL67OvGvf1b79/vVq697QTGaeMlNz96Kq5Hu3R9Lnu36fkZI8yhJbvhY4c8nyyBi8vOo5WMmIp7xBo4Hi67LwGLhWWl5+7foBKsqek62kzjxct92gT/b9OaZvrO1AaJcTMc2A8+S0bZtx9pxU9NWEAbfUAOAb+M2HCvY8CTPSjR/uECQue0sPPeAF7OI+fKkoTBl9Vq3x70sGC3iPBS7zzmMaRrDyVcN7skVYdH9C7dP2pWRMM1OD6TUUGSrEig4+v8mQTo3Nn0xD0KGiD8rl+r22XL4hw4u/8n/2oYSOZVvDml42I2uLLeflotootJNtsf83Q3NkjKqZlhuAPTUU652Xord89uLdp0FNTDFTh+BwDhcQiA3bXe3DfoEM6d+VMFq0d8OP3z6PHuqXu/TeITe7FY9GmAbq1r910ve4ycoEB+6e5tUlw8Mk34bebOmiiDl5zWWFm5YmWHZSb3GuhQcdv0a37YqbuIsoCg44vc2+WP+udWwUW3izFGfLVOY/eu3H3DYMH9f5n/g6ddRi88bAvFR88ePdG9/AGn/tK39irnMsKts/heVifRMrmeeVoyRJ9+VacTFde8DxxLnpvUB+gG/Yd01eLG3ZnnNBXwpn7vSK38I6Enyz4Yn5atpPnk+B39vDIqio/wst91Oy2GZhhcW62evw9P58FNxTsUlfsLnX/fnc5WtMtHuzS/pEZ8PKdKGU9bza8yr7ioyYPzQB44+MHxcP/oJm4+YLSCYw7/WcUuKY58/gU31bvotOTvAfKntbFryLLA7wjm3TCqxwNhRMjh8/jSzHcAgHsnKvzqsq7ccaWlpLUmNuuDIxMzkvPTcZlzdjsmomn15d2QFDih7B7GovojhQgdj0CvEiD4veTOfWM3qNxmkxNiCErwIuEZkIy/5h5cZwOuU+uo9XwpR4ivK42AWONdW9QtRzFaChmd/LTjybBkzZi0huzEd5Snq9J53OjuSY+qbyR54PkQHQNn9RaxR8FdIv5pGLwdrjQkvhFgerHsSMFcNWPArzx8TPtO5jFVL9FeFUzTUk8LADmXdiT2+LHZd7vnc8LB8KrbhOT4O06zcPycAff1gLwpvE1FVxUHqSkQp8dU80vlgNpfCm8fbsREE9G/AsRXpnfFVZlXyF4LztHXZtzKT6cfsB7d7BQePzhtS9D8HD9pvD4p4qsttm70Xuf2mizYHL8rq1T5uzfBYGNj56anbnl5XgIPnN24ZmnDs8cFx/+9JmCgq2nREnaj/EnrLvjZ9toXVipQbsOPzc/M4OQjMwtzx1+6nYpK9P69Lb6caDLp0+8xcNpP1Kn9ypHQwGOTr6rgoenKXTxhQhvK4/L0jmQksunhsCbXoPkQNPkJnDcFL6da+Cxh24BeGV+V3iVfcVY4RRFZBFjp6MlnNE48F4xuJvY7w+/SDIeGLePkGM2Yjsfjo9sgnccbgsP30TI4xZCDoaHw6OKbRDaG45sBTZCMsPD74e0LcT6jCBKx2Hco1s3la0QCgx/b1N9mV2YC7BDWf2m91junLItc3bpkOyG9ZKLLSTb6O6cXSEAJLu4Yj4sOqkW4ErjavmU8vLyFD6Fgyk1n7IYAJUC3KiXWo9CanMMn46S7gN4ZX5X2Y7wAqYUWNWjRWz8fvuW2TfPhr+D4fEv2+ecKCEHx52wkYvht58h24ZbyZkH4neQteHhReTU8PB95Ew8QP7ce+FPQdoJK7KtA3jjt5BXB8XvsoswicK9Ht97ddcOgHELY9y9FZyWrLj5hbc+faWn55VP33rh5hWQkLF1N+ZvIfayBbYyqIZPJHqvim1G6h17XSEA8Lqgr72vk3+JwpvEp6TkwScVHvrb0gBYgjOLgXaeT29tA++N5T9AScsBXgW/i3BlX0HHXuayat8W0UTSzHlv+PB4C5liXxceftC+EbKf3vgqQHkiPDwe/fPgQTDrLgIZVvsD4Z99BmkHyf7w4eEPQOh+UgIFhh8jFAdRtIbjprKMWWXwID5g/ez8GQT6d58OBOqRvj793RZIPnM+PBx6DIB6NlTIJxLHXlergB/o7JyVo6GABsLbxLemQpeL3lvMF0JGdHsw1w6OG9zGN8iBUr4NZtR1wLmUDwWubIBX5ndB1yGBjr3ouOp0CYChn/32HbdTiof4bjvJPDF8+MvkZSHXakOuTCt8n9p/KdMO8A63ZmLaFGv4XrIJQyWZ4TuIbS2QjTwjlMN0TZ+D6K/EArx7IXT2XcSV/cvf754FWPcOL0J0D4cPH65NsjsuyXtdDAOA64RX2V0K1kd4uRoeYKTwpvJ4Ckzj27ikdMAyDLphKVDLV8BrfZP4Zi4PnTo4HeCV+R3QdImMHYkUTL9VjpapAs0kB4cPnwp/QEOeJmTKgalTZ5J9Qq61AAOZ1qnDN4KPnTlMNk6dytKmWD97khykuZnDXyW2Ikr3Y4Iu2j0HvPfYkPP1hKx9d2APgEr/hC88AL27lpD62YSU7aD11KXAmfmSW5uArXyHF8debjGPqKL3joTQ3DZ+aTAAV5e2E+ZXcqCOz9twGta2TofAEkhbG1w1TVbwuyDKKfsK9F7sf5BUjkp4PxsyfAg1wmfHiI3snzr1VbIVzHh+5o7hErwXifWB4cN3K+EFNuCdeoJkTt1F6qdiidtuN2D+dRlk4zMzyKxPWJeM+IogM09GiD+ZRTLsJafGO4OlPy5c96rYBCylE17laCjAkcNPB0fk0THpde96QI1v6IAn+tZBgC8PlQPB5ZBQ15nE53NptTy/MgsvqCR+V3iVfQXzXsF5XQ+WIYyGg/cKwSFDtpH5r1vJM0NgKP1syGczyatDrAWYmWkd8iAAO2TIo2TjECFtinX8RWQbsodkXgtef/uQqbfPICckWdoDw/faYQL1OB1zccgV3RdRBpyFlE8fJ2TfeO1S3XJaXI0hp+iE1xUC15To9rmF0C0DjZyXBqA7BDpiocNujo6K5cKiYEaG2TI/5VV8OcJLnRZPUrWPCO+QmaSA9atFT39MyO6pO0jmgan19rX71oG/QkeMZgJ4YVTeu2Ojnay4X4J3yJC15Nhe6LQzh1w7k1h27NhCHnVrVI8Z++3kZoajhGbP17Pe/hS6ahnfgTfbyb7hHuVoysSx1+3HD/Aq8HEbrINunAut5dlp4I5N2Vdo9F4YZ0XabSFPgoHWkq1TDwBopOQN0VMzreOHvAoXuLbNz5G1MrzjT8Bc1/bylBVDhty+H6U8Cc5sqPGX3gAAIABJREFUgA4S8rWMruC0X//hy7LHPxHQZX78NVx2GxDvVMRM71WOhu5A0ZKexvN5pen8NC28jMfbhZFTo1l0vNj7TX3gjY/DHVk+e+PpIUOu/fgBkWXIkPEHPvvsgWs/I+uQ8YFnnnlgmGMJjbFTVnKv5KZCVzxw4Pu//eUv//MPGTe/JTo0sNxLMk7J6jWKd2Yz03uV3aV2aFQ4O6fXpufC7FkzefPe8Z5p2PhrVRiuVaYO200s44eNf5XsFTiHqZTwnjRsDjkrOimFEiLw9zXA+8tf/uW3fy94H0ZlBn/PWTLHmBJFNcz0XtPg1QSrsq/wEV6FPdwHLcR2pogUPOCTybfaV+DlkIIolui9lP74WyJ10j0ryFaflEFbzIRXORpqQsgnJuXJ5A3eYb7TtQe2rc2Yv/+BMb6I2mwve+tte5krifD+8pf/LnbSPT3HCdnsizYoaya8PqGlu3CA4R02fhgi6xO6w+aT92Gc/XdXEpyXHaCTXvE+zKR7vibzf7LwKvuKAHivj3amxTeRBWwa5YCmWuSPv81Y8O7AgQvsm3zTa6b3KkdD3c7oU4F+Au8c8oJWeL/MWAHT6BdgduUTmQmvsrukaEXjyhRQcRts2JApJihUjihDNGMavSesTPYe9gbvmD5BL6LzauucC75m95IWkBd9qrq/4S0FKl/K1yiXKILxBr8a0YzJ6Y4//lNjxDRlX9E/4J1N3oZZ89twJ1f+QBDILk+txOtfdr/hbTL733zB10x4laMhBSWaX0qPoY2wkCyTZ3hlPs8hZV/hFd64Mb3/OUAIXtTSK12YN2GIHXp65AujLzOkCyO8/v2UkAO+1NxMeF3giOGTWFopvxwCwq7HzhQ+vTxYinJzywuzaqpymzmWkVbXgXsli5OKs6BLlzJdhDvBOwqWyt39W+L6Au0jj4uXvHikMNODOB7/5bdTVnyNa89I9Hq4Z+DjZJ8vdUd43VlllK9rztECvDE1eHtA3PU4FzZC1jRJUa6bT+drGvn0MJbRDadCVDHfkFvFT4yRM13gVfYVY902gTavb8C7jrxNgWPQUXQRQ/woFiXFJHaErnydb/B6sIxOeJWjIUUDpladQItT+DzY2CztkqSdsxzt5pM6uOgU6L9pxjSAdzFfGoM7KqsBXjHTBV9FAnbOHtrRN+AtIXR7BoMY0ZP+et7/Uu6UHXPeJSW+wevBMDrhVXaXIrz8fDp3hqflyLseKYpytBs2b3Bw/28yg7cbZs4NdKzO4XMBXjFTgaZL0NvYm9gH6ACxC/0udVjxix6//jt2ypjt/NdTRg74UHnonN2f9r7CGzOfrwZ66Shfwyl2PVJ45U2Q0wBYjlsCd4hE743h+WhICoU9PHKmM6bKvmIsNMLDx+KDgUwr+gZZAdgpumcKLIVTBFZIUfbPA1eQN642XgcLousOYJ3wKkdDCoY4cw7h54cqdj1SFOVNkN38BuBeLsIL3huGe7PgBbHwkwU5k0pUfCn7Chh7PX0sV4/u/c+DZK0ILoVR8YXpSrdVRHrWkgd9qPulkaNGgWXU/kf6PLWSZs41sP9R3vVI4ZWjMoKi98KpEAlAzuVbtcILY697GmVJHN37n0dgk4aT+zIYhUmU6LOQiB/x72byiA91pxdG6t47Su9WOoVrsaA4c+bKYSyVdz0Gw5iqiCrhhQwce+leSfhpQ7cHeJV9xVjV81M8Z0daRvc+JRwmX0voCvhJQPa8IqKJsDrkfk0O+1B5C9rA9cNSdXbOytGQ4ivBWwf9r7xLMpZPSg6Vo9Okzplm4MwZ9kou3tnCL4qFsVfsuV1OHkWC55nzqL4A7+hlcLdIIgFBBuorX/8d1pdlh3Xoqt8nexKM40unVs74Yj+HHq0TXuVoKMDLVq1gE2yxctdjFw+dtbQJUoEgZtA15w1JuFQNW90VmQo4nYPovR7IktD7FAHeK6KrQLJn4FtnM778+1vMZx08lwH+NXnWh8qD97onX+F1QkHe9TgSHysqR2U+moHR2Py0IOU6tcwihpR9hbdlDR8MZFpRHHslEtF85YW///0///LL36Jji6ALni2wwNjrQxXMXLXqFC0fkGO2QotX7/1FQm9/Ilxnzj2fguP+EW/3IrwUXQFaCeqBPWvtD/pQdzO9V2Fv/wdHOnqv+y4IciwJEfTzi948robrXoBQpJ6BL9zy99/+hd3Lp/B++halT95//2ugm//wAsV6BVkN8Bqtf7+FN3S94hTy5r0RfYAeImUSuj09n75v+8N/MmzRe/Fnvn+/5Q+3/OEPf/jyt5T+z5fUo2HV6iEfKm8mvEHVCosHNNgf4I1QrDm/dbbsy7/8u4SuHPh3OfG3eB3VA2vOPqAbYSa8XBb8uiBANMpBjzd4J/UFWkXv5g8c+MrbdDolY6oeQnh74I7RKl/qbiq8HVlhDlb3X6Q5G+4wytQv4L2D3e89m/F3uVdWR5am/h+YaOP93jt+7gO+psLLBckW92uoPdtxw45XeH8+qfc/37DdGq988njZH+BiyIn+8kdGbOT97S1/+PstAC/s1vjGl5qbCy9gOjkt2K/Iwo0k+Ploh6MOr/D64ADmFa2lvTOMqK+88DhxQPiPdrv1FkpbYNL8PtAnb70Fv++GvrnWJ/2mw7tzcXYUx02ciEtYfvluy3Jd7vAG79A+QZtJJl29wAk0IGyXEf4jeKoqZZLNPlXddHgd3SpAMYA3Eq5v3f1bfDKReYXpPmdhyYIiDL007aOV8NKrXYo1XBqTOTf6pB7hdWeVSJ2LkgHCUkXNWLdNoM2z3Ng36A7c6IyXO/jHfPjLWV8Cwgp4aQbmIcsCcodvNbe4B3eUz/d7VYDwT9JYQNEDCfAOFUzVe0f8jRHiJ2AIh55XXvjS+uVv/yCmCsiz6Nf2+VhlH+r7I+qcI+FMVf9YbvwZWKn3/6/4NSl7C7Blf+wIERiHtwgR5QF/ITjZx3qzzlndKv3Je7F3dkuXwEhX9In/FDte7jjhKwy0kC5+KAv8vjdv6M+w4sbrzjpndcP0o7EXJxCRwkkqnatS3HJFnyEef50vfhBFhJrizRIV4bOE97nal8AwrvYQUvrP1IrOIMST1NmTI/sQvPdk4LM1FLjK+DJkpW94tsY9PsNLvdfFHoKh+g+89HzE85Sdq2JIOFquuA4M1Rf+r7piGj4ZR3JX5r0QZ5CLbg1HeDLOtKt8rvMlcTaitAjt6cBW/Qde2gr5Ek8O4ZkbabmO0hVX9YHjVVkEt20IgAKq0kAsYwy5NxNy+me+15fOnPHcV1pEjPcfeMFrPZDluqv6zueqZPpUOsGBGbyi7zIn7hmIT6VLNqPOFg9W6U/eK467qkfBe5nv9vb3Zdfdl4nPlEQo6b/kyhBjHvyJjSxYAiek7/Qjue71dJJGRlou60t01VUV8LxXfCIsRVfEVIAW7uDDE2FnV1xlSpV/JN6Lw4n7T9+C97LLrrpsOnueMx16Hb2XPs95OrCYQjhzdvv5sYy9RSGm2MosISMuG3FZRQrsrqJPY2f9MSxPvnt2IHsae0qFWZpCijx1a/0IXvGSSPV4NB8tetNll93UR/6hNpfl5+Gz2ZXvUijLhISMvHwA16R6Fq5TtQf158h+NLXydJJGRtY9NuKmvkUjboLT7WhtIzycnShehlLWmPVfJlb08s11ngzTj7zXUzMi13xoos1MEzW55Kab/nFfanHlAnDjjAWVxamXukwTzgR9uMaTXX4s8EbWF17e96gy2blOORlBzkk+xQvrPaH7o+mcI9uW+WQmvxRuqRrhIrd1pUuSLwnL2n4a8EaeWeOLmfxRNnTGXFexYZkbXBMNp6yp8Yjuj8d7IzuL5qGVruk7/+UpV7rW5/KXlppXx3lFnT8VeCM3FK258pprrukz/zmzglXrsrTNrDquKbov9McIr3OjWLyzZlkh4NtXqHG6ek3mZYaoZ+hMLVxW4+y7LnbpXzPn0Ej2EU9Zp3hoW/2HawrxVzJX9v5/N++uDimtPtfvvwrXfFj/UmSogKeTHQQrQaYReOeebls+cWIXxxX67bt5p/N+y7GRUGmRIMT+hAQ5vqZuXZGlT1BGgbtqzLfPcZelNb3oaB1c76JB3NiBGSbUCLzz0vDBCn6lwuQs5QNmQddY1hY8T2mz6Jfgy5glxVnDev27tJbWSrUeqVWqyXoSQ0XHldqtahfd8AbqJ2Q5zvBCOwSD0YaIrQGbOMbFjqp3j/llaVgx9U8kn+UmR51fLVWWju2n5GgHahe98OZkO/7s1q8+rBQ+VmgBNpU1SG60Y5y1tZe/a8qFWqrUIzSyu0QlWV+SiKkMs6tdQnWPvW3KR4kpzW9+OMbhF6BjAUOxSbQhYgSs4hiXYe+90OQZwVg/9QpAxge56lnaUxWypfPC0Q6YrNN7g5eYD6NbicnKU2ksbTmMODjqOITFOMuRYwoDCCUCl7K0Ra6ns1asYYc9x7Q6oTzxH3WJYTzqhNctFP7I2LBYIXWscI6KToFRFmZOwrLFFIG5tw7ZlVQz1kaNIL2uQS1DcxqeGzKJrRZT5XhfhjdE+RyPsXBW9hcataDaa1ULFntlMYFBJ7z4WObeobHyKal0W9UwdkvQSdG/3ji2FoNnealv1hxg8MLje75OeF2eKRkwrPuR93ba8zU4XmOpBiZfWfo0vA5PpaMeiV7Z5z8NdVrqODej0P8t0Qmvci4rOG4Oz8P6JFI2j+/UNpGUfUX/8d7uEm0+V16jjc8XLp3wqmDXyfNJ+FoELqbqX/AiFHyWNkCCMydrY/SByxR4efqgWHgAt8neq+wr+o33dlVphaMlSSunYT6d8CpHQ8GTc/g8vhTDLRDAzll4Exm81iglqTG3HVKkwMjkvPTcZFzWjM2umXh6fWmHkh/C7qm/wNs8a4NmMJZO18xqkFEnvMrRUICik59+NAmecxWT3piN8IpvIuOa+KTyRp4PkgPRNXxSaxW8/ISLhdeUFYO3w4WWxO8eWszpL/CmpGhHYvmMJu3MhjjNgLfrNA/Lwx18WwvAK796LBX67JhqfjG8MkMIpPGlUVx0IyCezOdGc4UIr8zvCq+yr+gn8G6Y1awDh5V5OpiNsOqEVzkaCnB08l0V+DrXLr4Q4ZVfPZbLp4Zw0flBnBRomtwEjpsCb1lo4LGHbgF4ZX5XeJV9RT+Bt6orRAcMzbPm6eA2wKoTXlcIuBy4Lirmw6KTagGuNMWbyGBKzacsBkClADfqpdajkNocw6ejpPsAXvlVZa6y+x+8Wbw+DFI1z8P0yRW5fYcXvBf62vs6+ZcovPKrx7jmlgbAEu4xiYF2nk9vbQPvjeU/QDCXA7wKfhd8lX1F//Degm7RsNqOIVqvorSJc+HSCa9yNBTQQHib+NZU6HLRe+VXj7WD4wa3wcvkpEAp3wbPAq0DzqU8PPQV1kEmK/hd0HVIAHix2+vb/3UNems4DdZA/NgmnfAqu0sFvFwNj+8ERHjlN5ElpQOWYdANS4FafMfvyCS+mb2DLDgd4JX5HdB0iYz1oxHMMnB+WafeWoYezfXjSav3fq8KvDj2wtt4eXBshFd+9VgqX5e2E6ZVgKAQqOPzNpyGta3TIbAE0tYGV02TFfwuiHLKvqI/eG9xq9A76gC5oywHC2kvMTJYB79O71WOhgIcOfx06IR5dEx63Su9eiyyDkZevjyUkwLB5ZBQ15kErxtMq+X5lVl4QSXxu8KrPJl6zXvRnNqMP3nBKAqUNm5Ral1DiIP8JPg9MCG2KlwdsU4RueRjpTVENV1Nq17vdYXANUV+9djIeWkAOpAc6IiFDrs5OiqWC4uCGRlmy/yUV/HlAK/cQLWGGE+TzUnNBoIcZQnmdEl35gsNTcqGoqywBm5RS+hCuLFPy7GUJHJ04sSjPCHzQkNKKlGeyMmOldbQULV0Zz4qVKf3KmzvU7AOunEutJaH0dkDKfsK8N6QEH/8V4I5U6g5Q8BsaGcHPaEIr0q6a11allKUqARnKa7cTAt+n54jlqNclWQ9xutIiqokWh8hx51UMT00RCe8ytHQAy5es9J4Pq80HV7XrJnGQpvVTlCf05LAnEBgTkGDkx7wFpbilO5cn5HsBhBanjqOxtoCL72xL5YLFepTTYpDQmvyQkMacufWLpgP9/5DQtc0LGzoxvo4pU+uXVgzuRQHfuc66oRX2V1qRkaNsXN6bXqunm2XfvTe9Xi2V9upOUNCP8hNo+aENDDnB2BONLNDOjVnarmjl7fW0DhYWPiIPuTpSH04LaOdlaGc1HtDRtWSaThYwL+VzKgkBFbD4FmGfCYhUB+X9IU2QjId6oOydHuvafCqQe6Spuwr2LKG89lpQpx6S8jIWvs0NpUBc9pgPO4KDRHNqZJOzengLZ1luANH9lyICDFPR8Yv39iHeBKpTE+HobcB5mk4tbKSo8Gh1aQqNNhKloRGTiRWp/QgK9kQOmoVwOusKUTv1Eo5GrqgYXqC8mQaC+emX6iSVC5aBOb8YFRICHhFCJozZDKpCkFzhqA5ndLRnCGRaE4l1ZYqY/rCoxZMlgtUEpvNZoW58zRRbwV4ImhLJnnA1STXR0hfTNMrnOrDBOrsnE1H0KNAB3jRHfxAIZV20ZyiV1TAJkuSGXoaRuNQNKdTOpgT0tGciuosXqiI6A5mV0pFoD44F6iYTkg7895MzJtihdnBaQzxYn3E9FSSjeklDvXBFKA+Da+yr/Cj98LYG9IE5mxm3ku9coo1DMyJLsBbBS8S0kPAnJgO5lQQLNX4QunTpdIw9tJwFQy+tDdZiNEp1pA8koUhmAs4pufakzF9gUN9MAVIJ7zK0dCj45me6b+plR3MCVMcB3OCt1BzQrqDOTE9lyQjf+YCMB8c6X9qlRwW0/Qcl9iaRFngvVRWOpksw4h6u9ilks2qgBfTW0g5lA2inbOzTp3wKrrLaFyTAipug60aajSZX85NwxtGrhQTFMq5y3Plpil+9t6QEAdzoregOcHQDubE9GwwZ4hgTgggNVt3soDh74k4rlISvHcysUbK8KLeJWRKZEhItzT2il69gZRAep0ZY68jvKVA5Uv5GvXFicmwojw53eFnfiJ0wXj/302eyANHZV/B4MWzE8nEo+AtjuZEr0BzhoZ0261O3oLmxGUH7AyFekjgGK4X3NgX2lVpT29snL2QkFQnvSGLyKLTMIY41wf6naWpH8gXRoIcPOjtnBWjYTS/lCIR2ghLyGqE8LohCq+bPEWy4mTiGLy0zuZ+VRIVc6K3qJmTpivMyaqyAbpWX6lrkSABLsqAMqumQdxh7A1pToeMVY1W5/SKlTDPLv0T9WanaujsnBW2j+GTWKwUOmF5f+TyusKWo7Wp0PkivGl1HbD9ZnpD0tHF4OLiRsnOFD69PJjlZRcnFWdB9z63vDCrpiq3WaGBCwi83sxZ68acU2RzKiZGTubVEZ3/klfm0I7qdlem0JGRoRUhkbDK5UrG4Y0W4I2pwRsD0n7HFhiOJybxDbEU3m6APvYoX7USbxhKGyXnwj7JmibMiyrmG3Kr+IkxXDefztc08ulhCnwVfYX/vNfVJmJKGJizWYzIR8GcsMolUNZ8MeTLsfpPBkvnkEooOR07cxfSCa9iNISpVSfQ4hQ+D3Yy8zUVXFQe3OBr4ZOCueg8PpnCOw0gTOZbY7hmPilG3ihJO2fMW8yXxmC5aoA3qYOLTnHT0cNGWJeq91YCmBOGWIU5S7Af9Z2Kc43JCIWFkJp0slDlTNQ79iq6S5w5z8epMw/PyZH3O7bwp8H/2gFz7Jy7YebcALszOO50bqS8UZLCy/Jw3M7hc4GzDULJbsfrvgOvZM4wBkfdB0LAGDpSqXx7jhTWFaiYXpVRmaeGrg/wxsznq4FeOsrXcIr9ji08dqnRfKPovTE8Hw0pSMJGyXa4+w8zZ/BeIS8UdvJMo8AucbiJpOgr+pD3hlR0VVnnS+bMt3foAsM9M9zYN5t0ds6K0VCcOYfw80MV+x1bWPcKW6wE7w3hqxi44NJso2Qzgxe8Nwx3aAHs8MOFbn4DhJY7wKvoK/oQvNRXZYc12qe6IBkWsnCxS6KGBLkqrsw64RWAwoM0c66BnY/y/sgW/j7IHMVPFL0XdkWOgpTJLaHyRknRe+G0iIS8uXyrNnjFlvT2UbQj1KN6CgzEJtUneY4gWK88LKZaxji84syZKwd/lfc7tsA4CgsSsOtZHHvLceVqFEyt5I2SwciEY28eXdXq4rtV4VX0FdzYMKEBvX0UTSnUo7LNpHqh3MZShIkBpfXI6qNeRu/YqxgNJXjroFuV90fChVHdZDp9Rnhxdgw/JUpOroWZk7xRMpZPSg7FPNgxuXhnC78oFjhdO2c4TyTCqRW2GNvh8di8uG7V2mPs4YyXgDBk5pHJomJBbskss+Sj3Dn2Ld7qe2ztqrruZqUdlGFn2+j0XsVoKI69cClUrNjv2MLDJTCfnoPLGsKa89wkmGJPj+ZGyhslu3i+na5Hb0gC7mLY8O4dXtXeh4KNJzA2DGjDh2ufPH7q/IQA0YkZT5mpacDbz3kT996JU8efLPpwg9BebDOQO9sYh1fyKxYQ9zvC1Cq6Ix+WoRQU05wPq1hAI4WNkhASnzoam58WBAtaqqToK3BqxZzW03f+h+uOvzfh+uuv92Yks/LfvtcsSUzOe5m7NAk8vu7DfA32CNMJb6cqDMpEYeasTDIczlaUhLGXnaTuj2GLH983YcL1EwbAJzB0quxpkxVtetzzqSnmXr/pGEyz3dtCyNMJr8LeboImwjvS0Xs9uS0df+5cd0psPTO6iLK/jhPqD9OOwiz5eG4e2zZBOjs9yB1w/al1d3qzSJjeqZUbTBXJ1XmwAm0Oha5XyBkb5o1azpwAvx0QwP8dK8zWd/2Ap2zntbXh+hNbW7yZRG/nHFStsHhAg14XJbvXnQCfxY45IJ+3d18/4JYdwlBgosYB728dMOHll7VIPL+um86rPHzp7Zxfgl8XBIhwMUQmb96bf+wUulKgaAI5O+Hlej9ou+H8rIsDbAu0SL7h1LF8L/6rF96OLOUdO9n65oeasx16ebqs4WGw+XDf9aJJ3jt1/NR7YsRPx/Nl1m0ZF/0hfPC2onvLpmiRPHjAvpkeLIIza73wckHmA6kqsT3bcRuPF+/dsG7AgMH0c76ebnc49rQQZ6lmf+/OIGWPb9uxzWy5AzYd32YrI7O0yR2wboNn99UNL2AxOS1YFRHzEuEqObLDUZwX7/3wIJ7vgwcMODWFFOzf9ugKkrGLxqkbQLrJx4v4Zl6SkWm23PNlGfhG2DKNcg9+6Pnq1wi8Oxdnw7LFxIm4hOWX7+ws14UOz95bUTRgMKX3SsiTE264YcB7T5KMEyzJL99PzUJ0t5ot+4YbTlnwxLG/p03yhLXNHt3XCLyObuWHmCu4sFvDYzO6nxzE7LGPzJlAQwO2kJcHHF97EWDfsfbiDYMHbyrKXLvtvRsGu6ZB0V3HrFNmnwIurbRjFskoeUortw6+GwZvKysjGec1FtnT7dEufRJetTPGI7z/VXdwMOI76IbnyCYIYHgHmT34ZbIDwi+TXYNvWEfIfBs5+56cNkhOe5pkrF1AyNNUBsrx9j9gU1nZfg183uSo5j+91lp2ynsdsOyg43U/AXjDVp0SQJ1PRJe6SObcAPBCOsK7i2zZfcN7ReT4ILW0e7HUJvLyIG1GBcMenvUUngOa+b2eMApZUJUZT43TJnv3uv/yhO+Pw3vD1p4YxGgK2c0CN+wmJYNetu+AGMB7Qz0APeiGp8hzqmmzyb0nBr138WlBCD2c37Y20z4FxkF9VGKHMeC8UpB6+IbdTx6DH+W6I7ubDPvZspLnNskiT6z1hK7+CyO1jjMQaR4757Bj0E9ROkaeEkK7yFrqqRTewSWkaO3atUXkmGraU2DMopeV6A54tOzsJ58ONEKffnI249EBQi3cHZ5+LuO5t17pMSL/3RceX7BNlDv40k8BXku80N4zdrHlT5L9AOVxSN9Pdg2ykseLjsHnjGraoN37C4gdHVygU3POGsOW4tXz6dktp0RRasf447b3ewb2GEIXNPS8u6Ve7K4sPwl4RSPuIJnvQXjmvU/boZuGcRZwrwd4txC094BTT49TSYs/BY779KOkQJRyccbvDNseAe7p+d2M+0VhKsd9ZW/1oAKD+ELZex9/gMn9acAbL9DgArLxRPjgteCL+8fF7yBPxsc/bSW7xp3B0Lht8K2SNs5qGxw/7gSxMSHjHih4gXqh8S/Ad8UJsU4ux4uILmBrFF04fXruPcvE/njgjQ2LhZ4I/tkfHKT4JcmEz1hJ5pmXn4TBdMeg+N2EPHkYrnh2xZ+H0K4nifXpcLW0M2TjroM3kzOClHufMw6sVPK5e8dJlXIKPP474DLuvLRoz5ZtVCrAq7CDYBHJLv1n5oxVpsgK38p4mEU04LhxTxfBog8h9VayLT78ZYB59pP2XfHxF3ESXHAxfJxKWvwDz2GRtQ8wKaesBt1KghbR67GeEivleBy3aYuv6GL93lpAxVqUdhBglezUr2bO9CyFFoiNkOOxlvhw+omPDw8fd+LijosPxO9ecRBi753CPjIc/m8/tYvZWy0t/vzBXbuRDz/73/dp4GUgQ/e5X5DHpMrfRZ9QeA13zuzkGPj4Pqyw6L3qdulv3qsEF71Z8GdLuIKGDwdThtP/8M/iP1PksOBn4XLaOCH4GZYQqORdhpBv3z3vFogCHY/nM7Bn9qlvpr3LCzejXMF73dil/8CLDRD8lQWU35ccLehT7HyGCX0zeljZ+eFqFdmFfbNPYy87O9jpYxHMorSGHO4/8Mp1VglZ1OxoLO2ziwXU/PTrBQ8LSzCWu5JNMecuuV+tBsO33UzhQQc+6yrAc8r8VxRnRhmKB+/18Ok/8EIr3JNFzZAG0y6eleG1ed/567hk12mTC59VhTcc4GXu1/NJvdq9MUeBjrHWr2n6DhPHAAAgAElEQVTPwnr2m3Fg+bFcGME5ykjtaBluHr1xi4wQcbSuhhiRC6+4X7VSrzLvBYh/h3fMdVE2nBpA6Pk9AwmKR+91b5d+5L1sGoU9EftTHs2E96J58Iar4YveyxAyDC9gCxIYvKr2YBOVsNj+A69wjqofLFPNIxO9V61SwwXvBYQMwst8F7wXxVvUDSKk9iN4hYsgHIJd/hHe4Sb9X5yD3sXIx85ZtU5s7MXu1SC86PpYHOAdDvCq2UNM60fwejpNLUOmwmcI/fb1aKL3qtVnKvVehMeo9wroDiTY3h+N93qGF7A1icyEV61Kkvcahpfhi/AO+Re8aib2kDbV3/D67r3U9WHs/Re8HnB0l6WE16fr3hX3q6qQvNfIde+9bE7AZs4/HXjHDzHto4TXp1WrFfer1ela8F7qfgCU7lWrx3HVSpo5Y5t/GmOvmiENpinhZb5i8Fsd3vEIrwSRTtF0jweWRgHkJwTveLPoWjPhVanUMOic0f/wzyAxdAcSlP4T8V4VQxpMMhHeYWpVkDpnH/H9acF7LZjSlH/T4L3lftX6vHozc13j6FLvh5kztvfH471RcOXr5v/S+GHDxpv0MQ3eFfePUauT6L0+wEs79h6C0gFeNzbBdGOrVov98sNA+SeHUW3VhU53UsZ6aERsrGWYeXS/4paCwcGRFbvlfrVK0akV81+D0qWZM4q3eLSLbnhjqvXeAnXCSVO0efliJ76xHs/SS2qGNJhmovf+m1oVwHuFqZVh/6VnRw9B6SZ77+luvbegnXDSGHXW0g+9d46q9w6jYy9D2LD70uIMXlO9d5TjIxE0YmWILRIfMimRR++NMrVzVtwxMmh/VmzF/XFuvBfHTurBBuWzvl3w3igcZNVBjtLdOUv29nsgpk05/oL3RkW5+Y+NsowxjX5Qjr2+rVrdplopoXNGiHSvWrG9VvTUgJkzioexl37UbBPbl+HlJisfojXWzQnKTlwT4R1zv8J7fVxzdgcvXdPoGWh4rxV6P6xaUXjp5YS68+qeOS/290NTlH3CqA5FLGDeG6f0Xt9u56t677/h2Ms+Bm/ni8XN99425xmPAgD/BmHsdXvZGxVrGRNn0mfMmDcU3usbvPerVWoMXvei+xm/nc9Kg/eCfAvt1dRtE6X3utfj1r4ceDQzUDE+N8eZkvkO5yR98bEw8ronS5xpdLVp3nvLatVKsWUNhMig9wroDiQo3uLeKJCjc2rl+CBAJ4A6+dqurtTyJHgzggsZgrdFIYZ5L3VhlS8T4Y1Tjr2+ee9tY9TwlaZWPu61EuBVsYacpBNehb1dg518KSZGJuGbjZzIELzKviJg3hu3WrFq5Ru8qt6baErnjOOv+d7rBJpjNIfBy62Et851lnd0N2zgYsVXBFJ4C8tbYWpWnVdVjmsjAoujDIeYI7zsAkD9u496r5rzxlHvpR2s0c6ZDt0wc2ads7pFWKpO7811ML9TRPDeDny3wmS+keeXy68IRHgLl/I7FW8bZCxOMhyiHYqYF+9NNI9M895bVqtW6lbxdr7RsVeaOaN4U8depT8pbM+CnXx6Xl5KOs+vR3j5tmDFKwIB3sIkfEGZ/LZBxuIixU2CeGGEZyVewjseLaqGNJaoHHt9u+69LU6tBqL3GrruZXut6Ly7h6B0XNZwtYdoH53e6wVeviod0OXrwgDeFMCpgb6SDF8RmMx3U3QVbxtkLG7QdEnuHe/1adXKvfcy/zO610qaOTN4PU2ddcLrcebMxt6Y9ho+G+Cdhi8qo68PxFcEJuMlUzOAVsunlJeXpwD6lMUFRmWCw8zZUyuiLImjoa3m/Cs7Z4NrwqzYittU64SdM111ot/6NCj3Wg0k2GBTO2el8V3CwtjL5cPgi++o4hSvCEyez9fxK2FClcSnpOTBJ5WxuAhRJij7Ci/eO9o0utpEeFUrJezWQA82Ssz7CYoPPLwd/EoBO/kVgcn8hphifg2neNsgPQOUaLqE9cALZ7JJH/PgXa1aI+a9dPg0Ci/zfvRec+HVMnOObYVXAjLsxFcEToPOuQO8Gt7cLL9t0Du8HQrAfzzeC/BSzzXsvMx34brXdO9V+pPC9iwIM+fW1taUJL5xlACv8IrA9FiYQwNWqbCeJb9t0Du8Sg0Bg3e0ed5726/Uemfpwsh490xdvyfA8Obg9AnWnKfD2zTwBYJA0isC6bJGaBJc+K6HC2K+AcAWWJQYegh7gTdhtFkfM+FVrdOtwh0j42MvQxe8F+SbOvZ6nDmrgaPyikDxbYNq7I5pbmfO0U7T6GjLaGiqSf8mem8CVMqlXoL3sh7a2OjLBm6E13HsdbGLzgsjR/P7O6YcCqj3Rkexj4iuFLckmEemwXvLatVKMe/1BV1aFsZeFE+9V7KDYBgp3o/gxTozgiNrgBS/pGpIY4mmwbvitgi1GkgzZ+O9My3ZI8DryS464fU4czbdmTsUEsWxlzbGCeeoKEvEL0z7KOH1cdVKtU4MXuqBxvZaSTNnbPMl6RSnJ73D+a/7fq+yu1TYPgDBsbLDSs4rNAgQ91fn7OOaszvvFS6MDO+1EmbO2DdYPNpFp/f2JrxwYopdsuS9IsCWCPNI6b1E94lL5MnSnNWqlcKxF5cljW/GEWfOKJ56r1u76IRX98xZt3mUBRxnzrRbljCWW4ShPgnvitsmqeErdc5GbwjSJWuAmKB05r3YJzOLONpFJ7xK4/s/rOwrxkYjRdFv12PfhPceNXQjxKmVce+lrg8zZwqvR7uYB29wWk4w3DIwkxzgxRMUzlBHEuN9E153nTPAQ/983a1B4aUGEe0gWkeM64TX7cx5chIuWK3E3xVUValCHBoUrZruIbFDkce8V3Bel4Nlkmk01LSxd8U9qpW609eNsNLMGcVbXGyhTNAJr9KfFLaH1WS+a1p2MY+379PV4U3l25Ul9IbHOg4q4lAjHE2Ed9Jq0/Y53zZUDV/onAWADHsvm1sRBi8ddJ3sAV5M7WUOvPP4Rvou5Ta+1gO8eDffMHnx3p9PMutjnvfeslOtTkMpvNg5G55aMXQHEmyzqd7rZuZcy7Nf88XWNAZT723tQhxbYeob2lKbVHM6hitN51ee5rig0oaGVHTj0umFpcVSrjrqDjNn5r1uvk303qFK7/Xtule9c771OeGy1/hzrdjYrfReN3bR6b3qMITySTFyDnbOsP0GCHZtxKTwR/N4fjrXmsQfbePyl/KLivmlOeDjSXDjUMqVSytDyqHAi/cONY1+phx7fVy1Uq0UjL2C+xl8rhW7aIaZM4o31XuVxpfDuPtGJgd4K2DnBhfakBQFw3M7F1PDr4nmOvmjAC9fPC9azpWLK0K9Au/Q1exdB/LyhNHQintU4YXOmeFLO2h9woW9VrRkj/nw5iqMLwc7+XI5QjtnwXtruHa6LbYpn8Gbj2Mzx6XAprp0vL8v5yrKy0HgkChg3nuF0nv1Gd+J2w28d/p6v1eaOZvuvUp/kizPBc13670x0DM3pu6EayL03iV8OmyTLE/nc6Bzhv5czpWFuQkFDF4TvXenqvdC5yx2r07ng+Yo69zN9151eGP4pVEMlRTwSalzDuFXcVz0vFa4IC6OpfB281V0m2RevnD5JOW6AVVO9gLvjabRz3YqfmOk2eBqjCvuUa0UHXvZ5EitlIY0YegmKN7UsdfNzBmGVApEE89HMXixE87na7jI9lguuhNn1ui9c9mPB4PbGZciV8ZREXKcOSsv153DFlVDGks0c+xVqwF6rwAQHAwROznMh1dhe2Wwg0/qgHhICkyRKbyNPOy3mg4zrjUU+DbY9VwK8AbzfCzHxVZBLl38kHOV0qSwsq/4/G/OkCrjlp/daNLnCvO895a5qnWi3itMrgyBK3btBNvs0Xv/9rlkS58CXTyfmzW9kW8AVBG4Oj6luxT6ZK6CT6rugN+fNHFZfG4a18KvXLJkFfyKgcEr56pqV8L70Rfi7QQlrGLYRO+9wkTvVXPeG5n3svmRQXiFmTOK9wjva9thgqOD1GfOMMJ2L8U15+ngm3TNeWQDzKgWV9XQ35LxfNISmCXXwk+NoqYjWxbMtNjKNPyMjOWq1qFDkXrhu+joGLcfyxXm0Vzzxl7VSvk89kozZxTvEd7vLigsqCGY7fZsiG5OgxFVpmBxhTm0Y9568GmgYAQ/sjMnlMbYl5yrSFQLfvUOYOuWLqka0liiid6rWgHRe8EFfRp7ewiKB3jRLur/73ylZkr3aVlN7vP8m3PyiAd0o0303quU3vvCLM/v9HPJnaV4h+Atc93Bi7AiuMb2WuFZgaUZvOrAUsD/duSkPlCC9LH7xn3fTkX57593e45CU0yE9wrlhdGsC/+fProwS/bIFfe4g5eiM9DImvPXVDzFV4DXnedi+vPfKyzYx4KOT6U7d8hNB0SbZ7nuCpM+V12h9F6iD1zgJkp4VeskjL3A58MNQea9IN/iwXtjDp3Ti2ma3gKG+edVK4u+th1xdPe5dN110FRT/q9Seq8BeOXJ8Ip7/qFWJxx7We9qGF7snuHZGthei1ubgK22v6Y0oYZwzOJkt7MrDcV1sTgq2v6dO2wh3XLddVcBumb8X3eP4gWvPsDbM3D2Par1kdacjXovnZLB10ZsL3iv289323XZG5ljpjk4le7ymgrENE8WJ94S/8k3r3E7cY4GeE2juYrXM/sA78Cegnv+oVapbHpLAYdfw96LAPcMLEPpni6M3tQ5s6K2huuaJRMnwv37ZM3f5Zo5mcw1Wd0uU/Qjh+AsjXHzb7nsKpM+l13VnCH3rz7BW/aNWp1GPDafzox8GHsR24ED3y3BNlvc2iSGO3REcg6/BohO6Y7dMiv8xUd0WVJ9JoHwXmfS/1UF70r4+gLvuwX/UK1TRRmOvOh/hr2XwvvCustAPnqvuk2i//bRFzrtbpBdL7yqag4dgRPVDVkuM5Fmvm8GvD3vf6hep6vWfkLRNTxzps7bM/DYaZSP3uuGjhxStaP5iabAe+SQ+7H32HXqpjSU2mntwc4PyYfr3p6yHDfaT89nE2cj173ic616Br6bieKvO+beKIHqmzlT4OU++s7NaRoTs+h/3ZjSSPKIrc8xcAf2+LBqdXOKW93HXhDcV/eqFX2HIO3ae7bcifL/d5Fbm3z3kfl+qi7RHHi/f97NxComZlX+ZZfddNlNN9FvX48j/mMF2h9J3NvEYhq+pQK/m/O/busxt+wtlE1HUA0yFSzyc63urYW23nRZ/iq3NgnckpU58L429gt3p2rpYzeZRiNuGpE243fMpmInrbCwpmDP7zI73VZoxIhkwNcIuoJuKHqv5X9R/mVrnnVjkugvPte7pqHumhpSzYGXe/55N22JWVPn1pgGMkbclLPl7KdGoQUMPj3L54wY4V7ziDW292F896DhU2n4Vzudjm/Z+B/gu0DPrnFnEjCWBmRMYTEJ3tc+dzf6Bq39vyOQbqLfJhz/kZtx9pNP1UzrNe3TT86WLRMq4rY+zasynnvrFTeyenreLnGv+90XHs+8UxD8f4uC1OG95ruxAXNek6ZWHPf9SfXGxMS0rgFoTf0EtcxeYJ/icsfPW0KJfcHsliA8wTx9Lh9xU/6zS212b9Jc8zeWFaxKvkmUvWaPO4OcDODNIpO8l+MunFNvzuVpqy43mUaAvP+6/PL7VlqrTsPRE/3HLEWuF14F5+UjwpQxx3DuUjeC/nH55SMk1lVp6vaIOadzn4ZPnbRp8J678Dc37WlNltpsXmB9XQGf2uxVXmGJVxb9DHmzvZdJ3oPrtCr0twu6bwX6ALBp8HLPu+mer2w/lu/dHLo4/qMlKbM87fIrr/FaqpP3ymKAYWWDt0L5x9pVoMWkk8/7gJbuoubBy331JneN1CZOCOFxzapIb+bQk9/dYC+uvvyaK7WUWZ6uhUs3T3GxZ+2Rq8Rps9IOaJIjgeyaOdOmVnBe/f6jdximXAxrlHi8si0l8hqTaGeeLb0tVLOwxQ2aWfUwXlk70QM7978pbWgJsf3iES6H3vn897o90JcCJnovdw7u6zufrTR+Tduq/Cs92ENrVnvpnIWlhVq5kS/bEwx6BDnzVpU7p8jx/FVtlyO4DGJ6oDEu5rvtAboRKJ4SZsLLvXnhNXbOYtPwnKVN5GKuuXLNseQrr/HtE/JSui1vnk4Zqbk+anWnL2qpW8nJx6BnlsEV7QApr114U7R7gI6mwsu9+dVrYrscj1e271lVDTAb/lSvKmvohtKcPgm5qfr4tXNHVpaqtSamelVuO4LLUBXOcBZ77asAXvGy88dceLnvL3wHLRJbR48Yxc/cPenPVueHGlmP62xdkNTi+v40DR6wsk0DkzGWpjldjgVjQvOrn13bmgZtZd7LjqI9Yr4LuO+aOrWijX1z+zsMVDrkCEGhvcFrSlctOmbRSVumWDMWzLmks5TAbiswVk5LqS0ZUxzYji1aVbqGrkSy85l9S3Z4Z3uge2YAxGTv5bhznx+haLKTFs9kwXuxtcqzWlM4OrnRWrNEfzlRV7oPZUUZbo/rM7NU8pzayezAcW9+HsjlDLFfMR1e7vcXTv4NgaSYyG2V45im7bNkpbXxdJQ2XnUuvhMBUM/zPbVzVjIKcZLvGGft/tvJr74zMiyJMBk5dpVNB++dnuE0hhgR5VDmeVPW3dbXlfBdFQ6C9Uf+5LJrV78MDyXmZazxkCtnnbsQ0LUqpji0LMNGZmWUKX8XKFfJh9C5CydhhuULBbckLWilnueLlJiYWaN8K++t9HKy3AsLuPdrJ00533UDklsGt7XKcnWX817g+7Hf+7DVs7uhrNiULfkx5o89Tm1fkzHPKcU5+sXzYwN+PcTqEErhNd15Ufhrz499HkYbA595Kbb0rBAQwcri0fD/qFlGaqCrTDI8Hs9DK797/vPnA3f3Hi2vIHBfvzgvqIh57fuPDh35m0KZlmBh6cI5peaNl+0lWpT6xpO1IN+dgOgjhz76vtfAhYfSAbx+cV7WYGjdoSPfeTi3Hc/70DZYdpwLRTWX8MbZyXvjMCG/pQQe6uf6+e5NbL075AOTnusv5xWq/8WRk9u3H3r+yDvffeHNkauL7R9MM7nVy9NNFqgqrmuO8rfzf/viu3eOfH9o+4WTR3yYfqgq0p0YWutH52W1iXnt3Jsnv7qw/fOxHui//8f6//7HQ77BrP/+fx61GpTqUux//p8i6fOPLnx18vtzr/nlMnfxxIkTwax++45qqy7UfRJhAQ+tbe7iC+pwALvSkGR3hZq5y7PRFgGg3KVR5tZdpc4x1Z0qqWYnNS9fbKrIqNNVVvzNqvk0a0F1am5QXZX5kl0lloOWqIxk1wzzUk5P8+Ah5qnx5IfatETKbMtrMhqT/VTt6WXWzIX2skZZmx9DExu402UpflQwytv1tXm6I33ytqgZdawqHbl/qpzu8mNw06oZSvcqlxm6kai/EsXFS8kM/cX6YgnHJ+PorWFSBq5IBbdUTsnN0VtWF38NrMnNmq6riHHmijl2YvVve4xXTmfJyT4sGS4qAyssri2rmaxTqW72TishC3WXMlSgZkoZKCsrNVRYS6HFwVq4TOIZ1WFYULGVlNXMqsoKMyxBe0GeWP1+DrHa1M7Ch+TZ/XcytflpgqLdmJo4V4IZrI3tmnh9ZkrOCMy8Ciu65APw37IKn+vsRoDHK7wcfLwrPOU3O8q1dDLf4Zror5T0DPzplVWYW/lLiyT3qNvlYInFxEByuj3bRHEOokY5xJwinXxtV1dqeRJ75LpjpiF4W1DG3D31DpuNNERsGWXEbreTWRp4gaV+Dy5BMzKgTZsSBy6lRo4beec6PXvDdG8Ic9QmtlT3sZOng35kEu96mWAIXuwrUtcdPz9BP11//tTxl49rK3f++LpUobEGtWnTI3MpNHLcfUXbTslZfgg5aNONqlQgh8HLreQruM7yju6GDVxsdnFScRZ01hTewvJWmJpV51WVd8MYLrBIxV0DAG/qk9jeAQb+dZQbMODJVKodtRnRZaCMoJHj0oouDjBQXk89pfa5mtgxJdcx6hgTvLcDX1o1mW/k+eVRxXxDbhU/MYbCW7iU3wlvl+P5mnQ+N1pgcRThGOvg5q4bEAgaPGAd9s8B0sZaRDWC0nVP3TDY320U2udoXZUYdpduqZNPz8tLSacvpoKn6LcFc4v50hguKo+vRngLk3iwYRpfU4FJ8wBeZPFMew4ODgwd3AMVCZg2bBPVyHE7twakgYI2z9bmvMDLV6UDunxdGGCHS6MN+MJXLgdeopDMw/sy0ENa+SU0qU5ggYgHqj8/eFAgPoPO10MtAqUNW8Q0clz2psC1z4OhWZbHmTMbe2Paa+BNJ5N5uGkew/PRUC4UXjmXjJdMzRCp5VPgPWQpgD5l8aixhbOMGxQgskBNAqcNGhWPGmFycTwwDWTaqEqDX8LYC6+nKgbsYCUnjL1KcBS8EjJ5Pl/Hr4QJVRKfQl9ElspYPKqayFniA0UU3kApo3qowa9MPRgYpebB2wFv/aTwApZ4Ww7fPZbMb4gpxldWFfOFkBTdHvwveOmpnXo8PCD4aoJXy8w5tpXvFrDLowNtF3TUeGGUzycFw7vmsqBZ0/g2DfB2cJbwQBH13kApo3pE7w2MUk3weplapbe2tqbAa5dHCdit5/nFO1v49FiYQ3fgS0BbuZHwlqq5bfxSLd4Lo+Hw4cPDA/JP4Q2QLtYmZvDUg4FrH+0uPH15hDcHp0+w5jwd7tNM5pejnA1JmAA30+myRmgSXPiuhwtivqFDYvGkjrNMnTpkakD+KbwB0sXaROGFsTdw7fNoasz0OHNWKx2bnxYEEyolRbfPLXRKUmYrwjBzHhIoYvAGShvqEb03MDqZNoVxez8IM+fxQEMO3L/rtgMYkumz24fIEbchbVy0OIWXCQqIvvHjqcGvTH0xMA3ss/De/ijB/Uwzb1eiOJPsHqaMu4ZfJQ+O9841/sGtTI4Mrz/1PXN44/59n7HKMoOnHhzmR4W3Pzhz3aNvoD5N8HqcOZvu7jBzHjZs2DoyZ++mPTYyezxERELgPNM+24vDvHMdyLQzMRReGvSfvvGPEgK3orfcTvVQg4P3+rGBD63FG99kJujTBK/HqZXp8MLMediw14n19jFjhh2wkY8ZEPQbgPtBEXUT9Ma1b38mIaysBK8f9b1BVrw+fncl2UNVMoOnHvSjwk1k3YHxbxC0XN+Ed8yYZ8iWuDFAey1vjHmx/g0IvVh/25iZ5LF1tilnDowZ88Mzx6xTZn8M6f/cX2Bd8cj4Mc/Uv/FqwcHHNr6h4BoTt2lt5qJXx4M8zH0YJY4ZQ5/ny4IUXgz6Ud9e8uKYuDEvkvlUJTU4eK8fFa4jr4Pt1pHNY8Zoglf3zNknj4aZc1zc64QcPvBDHCWwDxz3kscAOEKKMsmMh+LuItZ6gOn1uH+uIJkWOzn8wz4C8Qdh7I2TueJWEWKxkdon4ljuvzGBcXE2wkIUXgz6Ud8ey+ug4EUCrQJiBk998XWo8wGa8gM0jTVws6LqDg28BNYQmuC5gVTgg6/GjYl7wkJAvCZ4fUJLd2GYOSfGjd4PSG6Z+eI/4xJp6xMTAV5o/ZTXr36injwbt5U8EweIPpK4117/w9UfEytEyJ7X41jrRa7HyPy7Ep8osr8ItsHcRPED8NIwhRdDftR3Ncr/53xyWNIISz0vXi02EFIBXvr9zNW0gb8RGpiIDYxzbGAiNDBR5sIGxmEDE2kDqQZs2Yt7tpCtcDQV3qhY3ViqFEB4ExN/eHgjAEysryKwL0ICg/fB0YlXbyZFV28kWx9KfOK21xMLyMeJiVfv3XhgHykCLtZ6kWs2eTguMfHXZB20HnMlshEWZPBi2L/6bishcx6iKpnBU18c7V5hotjAOGUD73ZqIOVy18BFYLpboema4HWYObfA8hMl1z36NUkqaElJoUFwnzDJ+/ZRmDmPpvTDbc+WELI5AeCFOMA7eib5GEIPkSlX/xrqX/TIXaMTCfmBMo/eR26FwK3kQZHLPmV0CSmqr68vIkuFXMYJ3zbCghReMdVf+hIObCXkzEOyRu7K1M0Y86BwtG8NPPDGXqv9jtGjNcHrMHNu4Y+2luMHbgQ5kWd4U/l2uPFb41RGLQrwPrbvQEJCwujRq8gZAd4PEV77x5D2TzJl9OiPZxbAdfHDD5FMAZ19BJrD4JW4rGRpEdLWBJYrsKrA6099q21k/hsRgm7Re7UohFPYQAMTX38ITJfwLNn4C0Pwwj1ddfIGL97Y10KWhIit5MEIqOMvHiNVCY+QhyE4mzyW8CH4ckLEG2RRxMevJ0x6fQ8pSLCSuyHzjg8fuoPcAQHwXpkrYQu5B/gT77k7geUCAyMbYUfqvRD0o76I160wRcDGUKLwXpO6GRqI8Qj3DYyIeH0ZWai/gXeDVX6RMHo1uZSQoMl7HWbOLXjLXqCg0oaGVPBJ2EyV21C3k8IrpZVOLywthvu+qY3F09NgM106v/I0V4pdekd5eno53gCuyy7Mrao57bgWDTPnhIh95NJfsfUf2mcmPEyW/SIBjITwzobEZeSRBKvtVwkRfyU2QB3MdDex/kqCN4Jx7QGuFPIs8N9qX0bhFUyMB4QXjxK8ftT3LJlJdTH1zOCpLwoKE9QaiFX33kA0g2MDoUFIVnIX6NpqT/mFNngRP4kU8OYv5RcV80tzOG453CGq4nkYe+W09CS4SQg3kfiVK3nYQ9eaxB9to2PvEp4vn8jzADlwpEPmYkk4BmBqFTHpN1tIQd3DjxQR292T7iLk2WfhqucxAI7U3vkhsf510lbywa8315KtEfcQ8sgjJWRZBMAbERFxK3lY5oq4G0o+tsyecbeQGzEJPhHwbyNwgCOFF1P9qG8RKZo9u3b27A9RD9UIM+fNoLDkMGtghPYGTvLYQJQP7XuWLHjk1qV2AFnQ5mBeL5EWvjgX6TQXU8OvieY6YdNNbBLc2I1JBXjlNGFubLwAAAQpSURBVC6dL54XzaXgiLsc90LTsRemVmHpuHWjc35VFOzrqIsFAeUOKgHeSZOG3g2XrECLPv75pEmPQKB2mf2xoR/a66yETLlr0qSHiiHNvuibiEmPQQrJGz3pDvLg0EmT7iQPK7gmrYazgixcHSHkThLJRliIwotB/+mLwPohzacqBe/d7D+Fk34DXkBIya/BHEybg3ldI6oz53LYh1GLvCl88xIe+9wQfqkiDeDtgMQN+MvvNL5OhncD+7nKRMA9iQ/FrXdVwCITzJyHIt29+sX77qahob+6568Q+BlGIlbfNYkm3r35sbto4Fd33fMNDSi+JK5J9zx2D+NX5MpBCq8QDYS+oUMleMUG3ojqzWzgjUMnfbP613f9CuVqgtdp5jwtBCmWW8Knw/bH8nQ+J4tuv+GKkxRpXHoSHVMLp0+EblsBbzKfjFhO5zdwSRTYRufrKQYv1O7nWEUnupGiPHTojTf+jFrGKVuIilxDPfAAqxJeiPpdn2jw1M2snhoVqpygHhs4CaxDFRiBV5xadfNVdPtjXv50tksDplZyGpeO2MXkws8TSk8jvKW4JRY65xbAFagLxuOkBgy5wntjoIjCGyhlVA8zeOpmvyr9GZz6Cm1oZA/kZuaMeyGBgtujFvNdEIhJT6L7I1kag3c9vxRKtyu9dw3tyenmSVV4Yebs17YrhfcevFcoq+G3sCbvRRAlkmfOwTwfy3GxVXxYB98IK1I7YWolpzF4NyCwXJsS3vV8bQycFHw6TK3UvBemVldcF6APhTdAulibBO+ddkVAtPoCL3SzK5csWQW/TuDy+Lwli+mFkZxGO+dmuOxZXsfzH+RzL/G5afTCqJwv3zC5AfbNuoU3UOheR+ENmDZEVIB3c0DQFbRJrqkeyFUmt7BxFpOipuPicxY4bmQeBEpbYY4kp1Xh2MtNg58fpafVwcVPey386gjXnEPLsRg+ckrVe2HmfFWgiMIbKGVUD4X3ytQ1gVHKTibEwQNlAxLqFNmZA5c2QDEVaeIILaWxIjEdFRCowB8uBENfTik4LV8MCikOB8tlgSIKb6CUUT3M4KmbA6NUE7xZQQ7W93uk/s/u31Buas6f66EtAdOGVaca4ReCd5jaDnfCBG1eAAsouvft5JbBS7UDQtV7oOUB04ZNohphFpoSuPZ5ATew2fhUup2rdL8W1VCBEavmQuMCpY1WkWqE59Ouus9QjfUVYu3TgB8s/weI5lWDotQ6fe0wyF2XShsVIG1YSUEjLNOuzTFYaR3FJG1esItZjPPcwBBVlLqqeuSV/qWR1atShRYFQBu2RaERn4zTUhjtzxY6aPMCXcw0dCo/U0zz5HZRxdxlup9r5fAMKe+R+mXYMzPyvzasj1Kj7udaeW+QE4ejNrGl7o6h8Oy7ifjs62S/fa/J6m5C9f8/t4acKSofjqEAAAAASUVORK5CYII=;" vertex="1" parent="1">
          <mxGeometry width="478" height="381" as="geometry" />
        </mxCell>
      </root>
    </mxGraphModel>
  </diagram>
</mxfile>
